<svg xmlns="http://www.w3.org/2000/svg" viewBox="0 0 16 16">
<path d="M16.06,9.19s.06-.53.06-1.06-.06-1.06-.06-1.06l-1.92-.45A6,6,0,0,0,13.44,5l1-1.68a10.4,10.4,0,0,0-.7-.79c-.38-.37-.79-.7-.79-.7l-1.68,1a6.16,6.16,0,0,0-1.67-.7L9.19.2S8.66.14,8.13.14,7.07.2,7.07.2h0L6.62,2.12A6,6,0,0,0,5,2.82l-1.68-1a10.16,10.16,0,0,0-.79.7,10.16,10.16,0,0,0-.7.79L2.82,5a6,6,0,0,0-.7,1.67L.2,7.07S.14,7.6.14,8.13.2,9.19.2,9.19l1.92.45a6,6,0,0,0,.7,1.67L1.78,13s.33.41.7.79a10.16,10.16,0,0,0,.79.7l1.68-1a6,6,0,0,0,1.67.7l.45,1.92s.53.06,1.06.06,1.06-.06,1.06-.06l.45-1.92a6,6,0,0,0,1.67-.7l1.68,1s.41-.33.79-.7.7-.79.7-.79l-1-1.68a6,6,0,0,0,.7-1.67Zm-4.3,1.28a4.4,4.4,0,0,1-3.64,1.92,4.33,4.33,0,0,1-2.46-.75A4.44,4.44,0,0,1,4.08,9.71a4.32,4.32,0,0,1,.41-4.15A4.54,4.54,0,0,1,6.42,4a4.76,4.76,0,0,1,1.67-.36,4.4,4.4,0,0,1,2.46.75,4.44,4.44,0,0,1,1.58,1.93l.1.25L10,7.13a2.54,2.54,0,0,0-.16-.28A2,2,0,0,0,8.11,6,2.13,2.13,0,0,0,7,6.31a2,2,0,0,0-.74.9,2.08,2.08,0,0,0-.16.8,2.07,2.07,0,0,0,2.07,2.05A2.08,2.08,0,0,0,10,8.85h0l2.28.61A5.32,5.32,0,0,1,11.76,10.47Z" transform="translate(-0.14 -0.14)"/>
</svg>